<svg width="64" height="64" viewBox="0 0 64 64" fill="none" xmlns="http://www.w3.org/2000/svg">
<g id="Container">
<path id="icon" fill-rule="evenodd" clip-rule="evenodd" d="M32.0001 61.3333C15.7997 61.3333 2.66675 48.2004 2.66675 32C2.66675 15.7997 15.7997 2.66667 32.0001 2.66667C48.2004 2.66667 61.3334 15.7997 61.3334 32C61.3334 48.2004 48.2004 61.3333 32.0001 61.3333ZM51.7321 45.6657C54.4231 41.7875 56.0001 37.0779 56.0001 32C56.0001 18.7452 45.2549 8 32.0001 8C18.7452 8 8.00008 18.7452 8.00008 32C8.00008 37.0779 9.5771 41.7875 12.2681 45.6657C15.2693 41.7015 22.3217 40 32.0001 40C41.6785 40 48.7309 41.7015 51.7321 45.6657ZM47.9059 49.9727C47.1254 47.1663 41.5184 45.3333 32.0001 45.3333C22.4817 45.3333 16.8748 47.1663 16.0943 49.9727C20.3289 53.7231 25.8986 56 32.0001 56C38.1016 56 43.6713 53.7231 47.9059 49.9727ZM32.0001 40C26.0291 40 21.3334 35.8063 21.3334 26.6667C21.3334 20.682 25.5443 16 32.0001 16C38.4379 16 42.6667 21.1242 42.6667 27.2C42.6667 35.9456 37.915 40 32.0001 40ZM26.6667 26.6667C26.6667 32.718 28.8486 34.6667 32.0001 34.6667C35.1406 34.6667 37.3334 32.7957 37.3334 27.2C37.3334 23.8678 35.2418 21.3333 32.0001 21.3333C28.6234 21.3333 26.6667 23.5089 26.6667 26.6667Z" fill="#F72585"/>
</g>
</svg>
