<svg width="64" height="64" viewBox="0 0 64 64" fill="none" xmlns="http://www.w3.org/2000/svg">
<g id="Outlined / Social / people">
<path id="&#240;&#159;&#148;&#185; Icon Color" fill-rule="evenodd" clip-rule="evenodd" d="M23.9999 36.6667C17.7599 36.6667 5.33325 39.7867 5.33325 46V50.6667H42.6666V46C42.6666 39.7867 30.2399 36.6667 23.9999 36.6667ZM11.5733 45.3333C13.8133 43.7867 19.2266 42 23.9999 42C28.7733 42 34.1866 43.7867 36.4266 45.3333H11.5733ZM23.9999 32C29.1466 32 33.3333 27.8133 33.3333 22.6667C33.3333 17.52 29.1466 13.3333 23.9999 13.3333C18.8533 13.3333 14.6666 17.52 14.6666 22.6667C14.6666 27.8133 18.8533 32 23.9999 32ZM23.9999 18.6667C26.2133 18.6667 27.9999 20.4533 27.9999 22.6667C27.9999 24.88 26.2133 26.6667 23.9999 26.6667C21.7866 26.6667 19.9999 24.88 19.9999 22.6667C19.9999 20.4533 21.7866 18.6667 23.9999 18.6667ZM42.7733 36.8267C45.8666 39.0667 47.9999 42.0533 47.9999 46V50.6667H58.6666V46C58.6666 40.6133 49.3333 37.5467 42.7733 36.8267ZM39.9999 32C45.1466 32 49.3333 27.8133 49.3333 22.6667C49.3333 17.52 45.1466 13.3333 39.9999 13.3333C38.5599 13.3333 37.2266 13.68 35.9999 14.2667C37.6799 16.64 38.6666 19.5467 38.6666 22.6667C38.6666 25.7867 37.6799 28.6933 35.9999 31.0667C37.2266 31.6533 38.5599 32 39.9999 32Z" fill="#F72585"/>
</g>
</svg>
